<svg xmlns="http://www.w3.org/2000/svg" xmlns:xlink="http://www.w3.org/1999/xlink" width="2999.947" height="830.038" viewBox="0 0 5537 1532">
  <metadata><?xpacket begin="﻿" id="W5M0MpCehiHzreSzNTczkc9d"?>
<x:xmpmeta xmlns:x="adobe:ns:meta/" x:xmptk="Adobe XMP Core 5.6-c138 79.159824, 2016/09/14-01:09:01        ">
   <rdf:RDF xmlns:rdf="http://www.w3.org/1999/02/22-rdf-syntax-ns#">
      <rdf:Description rdf:about=""/>
   </rdf:RDF>
</x:xmpmeta>
                                                                                                    
                                                                                                    
                                                                                                    
                                                                                                    
                                                                                                    
                                                                                                    
                                                                                                    
                                                                                                    
                                                                                                    
                                                                                                    
                                                                                                    
                                                                                                    
                                                                                                    
                                                                                                    
                                                                                                    
                                                                                                    
                                                                                                    
                                                                                                    
                                                                                                    
                                                                                                    
                           
<?xpacket end="w"?></metadata>
<defs>
    <style>
      .cls-1 {
        fill: #fff;
        fill-rule: evenodd;
        filter: url(#filter);
      }
    </style>
    <filter id="filter" x="128" y="168" width="5258" height="1405" filterUnits="userSpaceOnUse">
      <feOffset result="offset" dx="63.628" dy="59.334" in="SourceAlpha"/>
      <feGaussianBlur result="blur" stdDeviation="9.695"/>
      <feFlood result="flood" flood-opacity="0.4"/>
      <feComposite result="composite" operator="in" in2="blur"/>
      <feBlend result="blend" in="SourceGraphic"/>
    </filter>
  </defs>
  <path id="ДВВиТ_1" data-name="ДВВиТ№1" class="cls-1" d="M237.654,386.174q15.019,102.81,30.038,205.62c20.377,139.489,24.7,249.369,9.844,347.4-10.567,66.679-32.82,130.239-55.254,190.239q-31.364,6.045-62.705,12.22,25.551,138.06,50.976,276.15,41.336-6.495,82.694-12.78-11.127-97.875-22.167-195.75,261.612-39.615,524.1-70.83,15.33,97.3,30.571,194.62,41.5-4.9,83.012-9.62-12.138-139.875-24.151-279.77-36.774,2.925-73.546,6.02-42.693-363.9-85.387-727.788Q481.341,350.573,237.654,386.174Zm116.859,71.674Q489,439.032,623.7,422.336q39.611,319.587,79.22,639.174Q518.007,1084.43,333.5,1111.5c18.4-46.92,36.717-104.8,46.176-163.842,16.977-95.7,14.4-206.982-3.78-336.966L354.513,457.848h0ZM1029.66,1109.8c36.38,1.09,93.73.08,167.94-6.92,136.04-12.79,228.02-44.37,282.53-101,39.21-43.221,64.14-98.6,59.07-168.911-8.57-121.247-108.49-178.562-191.58-191.108l-0.21-2.422c87.58-38.942,137.44-111.944,131.65-190.754-4.75-64.222-35.44-110.725-83.29-138.667-57.65-36.88-132.08-49.214-245.13-38.8-79.26,7.309-156.462,22.424-204.719,37.261Q987.792,709.139,1029.66,1109.8Zm36.1-741.39c17.73-5.391,47.11-11.941,98.84-16.717,113.9-10.473,194.64,21.014,202.25,116.673,6.24,78.8-57.87,142.232-174.85,152.945q-50.28,4.623-100.54,9.546-12.855-131.223-25.7-262.447h0Zm33.51,342.27q45.6-4.465,91.21-8.684c120.5-11.175,224.4,27.089,233.04,138.534,9.21,118.736-90.82,166.79-202.59,177.18-38.55,3.56-69.73,5.35-91.22,3.79q-15.225-155.406-30.44-310.82h0Zm601.58,342.72c36.27,2.56,93.57,3.88,167.95-.1,136.34-7.25,229.47-35.07,286.2-89.439,40.91-41.6,68.04-95.924,65.83-166.378-3.65-121.5-101.1-182.818-183.57-198.727-0.03-.81-0.07-1.619-0.1-2.429,89.03-35.353,141.77-106.272,139.19-185.252-2.14-64.363-30.91-112.073-77.56-141.933-56.08-39.191-129.9-54.535-243.2-48.723-79.43,4.084-157.12,16.049-205.9,28.912q25.59,402.033,51.16,804.069h0Zm66.06-739.316c17.92-4.665,47.52-10.016,99.36-12.687,114.15-5.84,193.5,28.9,197.22,124.787,3.05,78.989-63.55,139.767-180.78,145.72q-50.385,2.579-100.77,5.454l-15.03-263.274h0Zm19.6,343.348q45.705-2.609,91.41-4.971c120.77-6.272,222.97,36.177,227.08,147.881,4.39,119.012-97.45,162.965-209.46,168.8-38.63,1.994-69.84,2.521-91.23.09q-8.895-155.9-17.8-311.8h0Zm566.95-218.578q6.87,294,13.73,588.006,62.685-1.47,125.39-2.45c62.88-104.312,128.29-217.958,186.1-309.352,35.17-59.694,61.74-107.14,101.44-182.434l3.84,0.006c-5.28,94.779-7.86,144.6-7.98,240.6q-0.165,124.56-.32,249.118,52.155,0.075,104.3.46,2.22-294.07,4.45-588.146-66.21-.5-132.43-0.491-97.035,151.916-190.65,304.91c-39.58,68.525-60.33,110.156-95.37,182.455-1.26-.383-2.51-0.766-3.77-1.149,3.54-83.925,3.82-142.268,2.21-235.826q-2.13-123.934-4.25-247.869-53.34.915-106.69,2.16h0Zm866.59,590.016q54.615,1.53,109.22,3.43,12.63-364.35,25.26-728.7,133.44,4.626,266.83,11.311l4.5-89.814Q3301.1,208.826,2975.97,204.69l-1.14,89.918q132.84,1.69,265.67,5.419-10.23,364.422-20.45,728.843h0ZM4565.87,345.425c-111.5-11.727-213.18,55.866-225.51,191.4-12.01,131.94,68.21,214.871,180.39,226.642,100.84,10.51,206.34-39.5,224.08-189.128,14.87-125.443-53.22-215.677-178.96-228.911h0Zm-7.63,60.294c80.06,8.437,102.2,90.532,94.33,160.538-9.76,86.967-58.42,143.82-125.49,136.777-59.47-6.242-102.85-72.737-94.63-157.408C4439.51,473.086,4482.05,397.766,4558.24,405.719Zm115.95,490.737q3.6-31.391,7.21-62.779-165.4-19-331.07-34.719l-5.97,62.909Q4509.39,877.531,4674.19,896.456ZM3772.08,1053.58q10.02-163.146,20.05-326.283c8.57-139.487,11.62-230.613,12.68-332.817,1.32-.326,2.63-0.651,3.94-0.977,33.19,92.126,72.19,184.744,114.3,276.571q94.98,203.274,184.86,407.566,55.11,4.5,110.21,9.39,34.83-393.411,69.67-786.816-50.58-4.481-101.18-8.664l-26.73,323.361c-10.32,124.742-15.36,217-15.79,327.926l-1.35,1.107c-28.1-85.262-65.08-176.026-107.51-273.072q-93.15-202.641-191.33-404.249-62.34-3.916-124.71-7.383-21.915,394.338-43.83,788.67,48.36,2.7,96.72,5.67h0Zm1236.75,122.64q52.4,7.185,104.76,14.71,56.16-390.938,112.31-781.87-48.4-6.954-96.84-13.634-98.01,33.1-195.14,67.306,5.805,41.775,11.5,83.55,77.025-27.48,154.62-54.261l2.57,0.353q-46.89,341.92-93.78,683.846h0Z"/>
</svg>
